<?xml version="1.0" encoding="utf-8"?>
<!-- Generator: Adobe Illustrator 26.5.0, SVG Export Plug-In . SVG Version: 6.00 Build 0)  -->
<svg version="1.0" id="Layer_1" xmlns="http://www.w3.org/2000/svg" xmlns:xlink="http://www.w3.org/1999/xlink" x="0px" y="0px"
	 viewBox="0 0 6000 4000" style="enable-background:new 0 0 6000 4000;" xml:space="preserve">
<style type="text/css">
	.st0{fill:#273A4E;}
	.st1{fill:url(#SVGID_1_);}
	.st2{fill:#FFFFFF;}
	.st3{fill:url(#SVGID_00000109022696951453476830000009234905988278521737_);stroke:#000000;stroke-miterlimit:10;}
	.st4{fill:url(#SVGID_00000121270990564480669460000005113852832186832514_);stroke:#000000;stroke-miterlimit:10;}
	.st5{fill:url(#SVGID_00000027601188619598814450000017012886844272976281_);stroke:#000000;stroke-miterlimit:10;}
	.st6{fill:url(#SVGID_00000093176320067217189700000007656654528405785730_);}
	.st7{fill:url(#SVGID_00000165949257602309012850000011201975978976276394_);stroke:#000000;stroke-miterlimit:10;}
	.st8{fill:url(#SVGID_00000062167811490196478810000013292605756033867449_);stroke:#000000;stroke-miterlimit:10;}
	.st9{fill:url(#SVGID_00000016796010705931886800000001959018055015695525_);stroke:#000000;stroke-miterlimit:10;}
	.st10{fill:url(#SVGID_00000121238093909228888630000010554711449389735814_);}
	.st11{fill:url(#SVGID_00000029021794359543528130000000096581356907986367_);stroke:#000000;stroke-miterlimit:10;}
	.st12{fill:url(#SVGID_00000081634163502425075670000004118211954520351374_);stroke:#000000;stroke-miterlimit:10;}
	.st13{fill:url(#SVGID_00000062176859100345887260000003172202069234178963_);stroke:#000000;stroke-miterlimit:10;}
	.st14{fill:url(#SVGID_00000013174826083769095220000009913706009242387389_);}
	.st15{fill:url(#SVGID_00000163769130655146550300000015913547595652435886_);stroke:#000000;stroke-miterlimit:10;}
	.st16{fill:url(#SVGID_00000039849889757606295580000000761486682109268633_);stroke:#000000;stroke-miterlimit:10;}
	.st17{fill:url(#SVGID_00000032642638637632867290000011358443389294186385_);stroke:#000000;stroke-miterlimit:10;}
</style>
<g>
	<rect x="-32.5" y="-18.5" class="st0" width="6039" height="4034"/>
	<path d="M6006-18v4033H-32V-18H6006 M6007-19H-33v4035h6040V-19L6007-19z"/>
</g>
<g>
	<linearGradient id="SVGID_1_" gradientUnits="userSpaceOnUse" x1="337.5" y1="1774.083" x2="1165.5" y2="1774.083">
		<stop  offset="0" style="stop-color:#572D84"/>
		<stop  offset="0.1456" style="stop-color:#52368D"/>
		<stop  offset="0.3207" style="stop-color:#49489D"/>
		<stop  offset="0.6631" style="stop-color:#5B4A9D"/>
		<stop  offset="0.9944" style="stop-color:#894E99"/>
	</linearGradient>
	<path class="st1" d="M397.5,1836.6c-33.1,0-60-26.9-60-60v-5c0-33.1,26.9-60,60-60h708c33.1,0,60,26.9,60,60v5
		c0,33.1-26.9,60-60,60H397.5z"/>
	<path d="M1105.5,1712.1c32.8,0,59.5,26.7,59.5,59.5v5c0,32.8-26.7,59.5-59.5,59.5h-708c-32.8,0-59.5-26.7-59.5-59.5v-5
		c0-32.8,26.7-59.5,59.5-59.5H1105.5 M1105.5,1711.1h-708c-33.4,0-60.5,27.1-60.5,60.5v5c0,33.4,27.1,60.5,60.5,60.5h708
		c33.4,0,60.5-27.1,60.5-60.5v-5C1166,1738.2,1138.9,1711.1,1105.5,1711.1L1105.5,1711.1z"/>
</g>
<g>
	<path class="st2" d="M137.5,3949.8V2041.8c0-66.8,26-129.5,73.2-176.7c47.2-47.2,110-73.2,176.7-73.2h766.2
		c66.8,0,129.5,26,176.7,73.2c47.2,47.2,73.2,110,73.2,176.7v1908.1H137.5z"/>
	<path d="M1153.6,1792.3c33.7,0,66.3,6.6,97.1,19.6c29.7,12.6,56.4,30.5,79.3,53.5c22.9,22.9,40.9,49.6,53.5,79.3
		c13,30.7,19.6,63.4,19.6,97.1v1907.6H138V2041.7c0-33.7,6.6-66.3,19.6-97.1c12.6-29.7,30.5-56.4,53.5-79.3
		c22.9-22.9,49.6-40.9,79.3-53.5c30.7-13,63.4-19.6,97.1-19.6H1153.6 M1153.6,1791.3H387.4c-138.3,0-250.4,112.1-250.4,250.4v1908.6
		h1267V2041.7C1404,1903.4,1291.9,1791.3,1153.6,1791.3L1153.6,1791.3z"/>
</g>
<linearGradient id="SVGID_00000023983932792512187800000015820558588674360199_" gradientUnits="userSpaceOnUse" x1="1402.5" y1="2411.2495" x2="1470" y2="2411.2495">
	<stop  offset="0" style="stop-color:#582C83"/>
	<stop  offset="0.1572" style="stop-color:#53358C"/>
	<stop  offset="0.3653" style="stop-color:#48499E"/>
	<stop  offset="0.6012" style="stop-color:#48499E"/>
	<stop  offset="0.9944" style="stop-color:#8F4E99"/>
</linearGradient>
<polygon style="fill:url(#SVGID_00000023983932792512187800000015820558588674360199_);stroke:#000000;stroke-miterlimit:10;" points="
	1402.5,2383.5 1470,2439 1402.5,2438.5 "/>
<linearGradient id="SVGID_00000150789301424070259710000012819703239696151203_" gradientUnits="userSpaceOnUse" x1="74" y1="2549.4995" x2="1470" y2="2549.4995">
	<stop  offset="0" style="stop-color:#582C83"/>
	<stop  offset="0.1572" style="stop-color:#53358C"/>
	<stop  offset="0.3653" style="stop-color:#48499E"/>
	<stop  offset="0.6012" style="stop-color:#48499E"/>
	<stop  offset="0.9944" style="stop-color:#8F4E99"/>
</linearGradient>
<rect x="74" y="2439" style="fill:url(#SVGID_00000150789301424070259710000012819703239696151203_);stroke:#000000;stroke-miterlimit:10;" width="1396" height="221"/>
<linearGradient id="SVGID_00000050644994677775774570000012773183800921941406_" gradientUnits="userSpaceOnUse" x1="74.83" y1="2408.73" x2="138.5" y2="2408.73">
	<stop  offset="0" style="stop-color:#582C83"/>
	<stop  offset="0.1572" style="stop-color:#53358C"/>
	<stop  offset="0.3653" style="stop-color:#48499E"/>
	<stop  offset="0.6012" style="stop-color:#48499E"/>
	<stop  offset="0.9944" style="stop-color:#8F4E99"/>
</linearGradient>
<polygon style="fill:url(#SVGID_00000050644994677775774570000012773183800921941406_);stroke:#000000;stroke-miterlimit:10;" points="
	138,2438.5 74.8,2438.8 138.5,2378.6 "/>
<g>
	
		<linearGradient id="SVGID_00000004517598724692494830000011106679683133903536_" gradientUnits="userSpaceOnUse" x1="1845.5" y1="1770.0828" x2="2673.5" y2="1770.0828">
		<stop  offset="0" style="stop-color:#EC228F"/>
		<stop  offset="0.1349" style="stop-color:#E7238F"/>
		<stop  offset="0.2885" style="stop-color:#DA2890"/>
		<stop  offset="0.4513" style="stop-color:#C32F92"/>
		<stop  offset="0.6195" style="stop-color:#A33994"/>
		<stop  offset="0.6567" style="stop-color:#9B3B95"/>
	</linearGradient>
	<path style="fill:url(#SVGID_00000004517598724692494830000011106679683133903536_);" d="M1905.5,1832.6c-33.1,0-60-26.9-60-60v-5
		c0-33.1,26.9-60,60-60h708c33.1,0,60,26.9,60,60v5c0,33.1-26.9,60-60,60H1905.5z"/>
	<path d="M2613.5,1708.1c32.8,0,59.5,26.7,59.5,59.5v5c0,32.8-26.7,59.5-59.5,59.5h-708c-32.8,0-59.5-26.7-59.5-59.5v-5
		c0-32.8,26.7-59.5,59.5-59.5H2613.5 M2613.5,1707.1h-708c-33.4,0-60.5,27.1-60.5,60.5v5c0,33.4,27.1,60.5,60.5,60.5h708
		c33.4,0,60.5-27.1,60.5-60.5v-5C2674,1734.2,2646.9,1707.1,2613.5,1707.1L2613.5,1707.1z"/>
</g>
<g>
	<path class="st2" d="M1637.5,3953.8V2045.8c0-66.8,26-129.5,73.2-176.7s110-73.2,176.7-73.2h766.2c66.8,0,129.5,26,176.7,73.2
		s73.2,110,73.2,176.7v1908.1H1637.5z"/>
	<path d="M2653.6,1796.3c33.7,0,66.3,6.6,97.1,19.6c29.7,12.6,56.4,30.5,79.3,53.5c22.9,22.9,40.9,49.6,53.5,79.3
		c13,30.7,19.6,63.4,19.6,97.1v1907.6H1638V2045.7c0-33.7,6.6-66.3,19.6-97.1c12.6-29.7,30.5-56.4,53.5-79.3s49.6-40.9,79.3-53.5
		c30.7-13,63.4-19.6,97.1-19.6H2653.6 M2653.6,1795.3h-766.2c-138.3,0-250.4,112.1-250.4,250.4v1908.6h1267V2045.7
		C2904,1907.4,2791.9,1795.3,2653.6,1795.3L2653.6,1795.3z"/>
</g>
<linearGradient id="SVGID_00000171703014449406293640000014988385223398718881_" gradientUnits="userSpaceOnUse" x1="2902.5" y1="2438.2498" x2="2970" y2="2438.2498">
	<stop  offset="0" style="stop-color:#EC228F"/>
	<stop  offset="0.1337" style="stop-color:#E6248F"/>
	<stop  offset="0.3178" style="stop-color:#D42991"/>
	<stop  offset="0.53" style="stop-color:#B73293"/>
	<stop  offset="0.698" style="stop-color:#9B3B95"/>
</linearGradient>
<polygon style="fill:url(#SVGID_00000171703014449406293640000014988385223398718881_);stroke:#000000;stroke-miterlimit:10;" points="
	2902.5,2411.5 2970,2465 2902.5,2464.5 "/>
<linearGradient id="SVGID_00000083770891992670966610000003141603645821612695_" gradientUnits="userSpaceOnUse" x1="1574" y1="2575.4998" x2="2970" y2="2575.4998">
	<stop  offset="0" style="stop-color:#EC228F"/>
	<stop  offset="0.1337" style="stop-color:#E6248F"/>
	<stop  offset="0.3178" style="stop-color:#D42991"/>
	<stop  offset="0.53" style="stop-color:#B73293"/>
	<stop  offset="0.698" style="stop-color:#9B3B95"/>
</linearGradient>
<rect x="1574" y="2465" style="fill:url(#SVGID_00000083770891992670966610000003141603645821612695_);stroke:#000000;stroke-miterlimit:10;" width="1396" height="221"/>
<linearGradient id="SVGID_00000140002406542854958520000000604900209248814762_" gradientUnits="userSpaceOnUse" x1="1575" y1="2434.9099" x2="1638.6699" y2="2434.9099">
	<stop  offset="0" style="stop-color:#EC228F"/>
	<stop  offset="0.1337" style="stop-color:#E6248F"/>
	<stop  offset="0.3178" style="stop-color:#D42991"/>
	<stop  offset="0.53" style="stop-color:#B73293"/>
	<stop  offset="0.698" style="stop-color:#9B3B95"/>
</linearGradient>
<polygon style="fill:url(#SVGID_00000140002406542854958520000000604900209248814762_);stroke:#000000;stroke-miterlimit:10;" points="
	1638.1,2464.7 1575,2465 1638.7,2404.8 "/>
<g>
	
		<linearGradient id="SVGID_00000160191797791536571840000005054417224364003210_" gradientUnits="userSpaceOnUse" x1="3353.5" y1="1772.0823" x2="4181.5" y2="1772.0823">
		<stop  offset="0" style="stop-color:#FEBB16"/>
		<stop  offset="0.2744" style="stop-color:#FBA21A"/>
		<stop  offset="0.7376" style="stop-color:#F57122"/>
	</linearGradient>
	<path style="fill:url(#SVGID_00000160191797791536571840000005054417224364003210_);" d="M3413.5,1834.6c-33.1,0-60-26.9-60-60v-5
		c0-33.1,26.9-60,60-60h708c33.1,0,60,26.9,60,60v5c0,33.1-26.9,60-60,60H3413.5z"/>
	<path d="M4121.5,1710.1c32.8,0,59.5,26.7,59.5,59.5v5c0,32.8-26.7,59.5-59.5,59.5h-708c-32.8,0-59.5-26.7-59.5-59.5v-5
		c0-32.8,26.7-59.5,59.5-59.5H4121.5 M4121.5,1709.1h-708c-33.4,0-60.5,27.1-60.5,60.5v5c0,33.4,27.1,60.5,60.5,60.5h708
		c33.4,0,60.5-27.1,60.5-60.5v-5C4182,1736.2,4154.9,1709.1,4121.5,1709.1L4121.5,1709.1z"/>
</g>
<g>
	<path class="st2" d="M3145.5,3951.8V2043.8c0-66.8,26-129.5,73.2-176.7c47.2-47.2,110-73.2,176.7-73.2h766.2
		c66.8,0,129.5,26,176.7,73.2c47.2,47.2,73.2,110,73.2,176.7v1908.1H3145.5z"/>
	<path d="M4161.6,1794.3c33.7,0,66.3,6.6,97.1,19.6c29.7,12.6,56.4,30.5,79.3,53.5s40.9,49.6,53.5,79.3c13,30.7,19.6,63.4,19.6,97.1
		v1907.6H3146V2043.8c0-33.7,6.6-66.3,19.6-97.1c12.6-29.7,30.5-56.4,53.5-79.3c22.9-22.9,49.6-40.9,79.3-53.5
		c30.7-13,63.4-19.6,97.1-19.6H4161.6 M4161.6,1793.3h-766.2c-138.3,0-250.4,112.1-250.4,250.4v1908.6h1267V2043.8
		C4412,1905.4,4299.9,1793.3,4161.6,1793.3L4161.6,1793.3z"/>
</g>
<linearGradient id="SVGID_00000080171570348157154130000010954812608162511768_" gradientUnits="userSpaceOnUse" x1="4410.5" y1="2439.2502" x2="4478" y2="2439.2502">
	<stop  offset="0" style="stop-color:#FEBB16"/>
	<stop  offset="0.2744" style="stop-color:#FBA21A"/>
	<stop  offset="0.7376" style="stop-color:#F57122"/>
</linearGradient>
<polygon style="fill:url(#SVGID_00000080171570348157154130000010954812608162511768_);stroke:#000000;stroke-miterlimit:10;" points="
	4410.5,2412.5 4478,2466 4410.5,2465.5 "/>
<linearGradient id="SVGID_00000048500366296892264580000001137722642892783233_" gradientUnits="userSpaceOnUse" x1="3082" y1="2576.5002" x2="4478" y2="2576.5002">
	<stop  offset="0" style="stop-color:#FEBB16"/>
	<stop  offset="0.2744" style="stop-color:#FBA21A"/>
	<stop  offset="0.7376" style="stop-color:#F57122"/>
</linearGradient>
<rect x="3082" y="2466" style="fill:url(#SVGID_00000048500366296892264580000001137722642892783233_);stroke:#000000;stroke-miterlimit:10;" width="1396" height="221"/>
<linearGradient id="SVGID_00000032634637372103407010000014118223450730775936_" gradientUnits="userSpaceOnUse" x1="3083" y1="2435.9104" x2="3146.6699" y2="2435.9104">
	<stop  offset="0" style="stop-color:#FEBB16"/>
	<stop  offset="0.2744" style="stop-color:#FBA21A"/>
	<stop  offset="0.7376" style="stop-color:#F57122"/>
</linearGradient>
<polygon style="fill:url(#SVGID_00000032634637372103407010000014118223450730775936_);stroke:#000000;stroke-miterlimit:10;" points="
	3146.1,2465.7 3083,2466 3146.7,2405.8 "/>
<g>
	
		<linearGradient id="SVGID_00000042007724890851592720000001764536372033823396_" gradientUnits="userSpaceOnUse" x1="4863.5" y1="1772.0823" x2="5691.5" y2="1772.0823">
		<stop  offset="0" style="stop-color:#51C2BD"/>
		<stop  offset="0.2531" style="stop-color:#38B6B2"/>
		<stop  offset="0.7376" style="stop-color:#009999"/>
	</linearGradient>
	<path style="fill:url(#SVGID_00000042007724890851592720000001764536372033823396_);" d="M4923.5,1834.6c-33.1,0-60-26.9-60-60v-5
		c0-33.1,26.9-60,60-60h708c33.1,0,60,26.9,60,60v5c0,33.1-26.9,60-60,60H4923.5z"/>
	<path d="M5631.5,1710.1c32.8,0,59.5,26.7,59.5,59.5v5c0,32.8-26.7,59.5-59.5,59.5h-708c-32.8,0-59.5-26.7-59.5-59.5v-5
		c0-32.8,26.7-59.5,59.5-59.5H5631.5 M5631.5,1709.1h-708c-33.4,0-60.5,27.1-60.5,60.5v5c0,33.4,27.1,60.5,60.5,60.5h708
		c33.4,0,60.5-27.1,60.5-60.5v-5C5692,1736.2,5664.9,1709.1,5631.5,1709.1L5631.5,1709.1z"/>
</g>
<g>
	<path class="st2" d="M4655.5,3951.8V2043.8c0-66.8,26-129.5,73.2-176.7c47.2-47.2,110-73.2,176.7-73.2h766.2
		c66.8,0,129.5,26,176.7,73.2c47.2,47.2,73.2,110,73.2,176.7v1908.1H4655.5z"/>
	<path d="M5671.6,1794.3c33.7,0,66.3,6.6,97.1,19.6c29.7,12.6,56.4,30.5,79.3,53.5s40.9,49.6,53.5,79.3c13,30.7,19.6,63.4,19.6,97.1
		v1907.6H4656V2043.8c0-33.7,6.6-66.3,19.6-97.1c12.6-29.7,30.5-56.4,53.5-79.3s49.6-40.9,79.3-53.5c30.7-13,63.4-19.6,97.1-19.6
		H5671.6 M5671.6,1793.3h-766.2c-138.3,0-250.4,112.1-250.4,250.4v1908.6h1267V2043.8C5922,1905.4,5809.9,1793.3,5671.6,1793.3
		L5671.6,1793.3z"/>
</g>
<linearGradient id="SVGID_00000054261955770568168230000009589467667515459223_" gradientUnits="userSpaceOnUse" x1="5920.5" y1="2439.2502" x2="5988" y2="2439.2502">
	<stop  offset="0" style="stop-color:#59C6C1"/>
	<stop  offset="0.7362" style="stop-color:#009999"/>
</linearGradient>
<polygon style="fill:url(#SVGID_00000054261955770568168230000009589467667515459223_);stroke:#000000;stroke-miterlimit:10;" points="
	5920.5,2412.5 5988,2466 5920.5,2465.5 "/>
<linearGradient id="SVGID_00000110445192894024749990000011458427069232772997_" gradientUnits="userSpaceOnUse" x1="4592" y1="2576.5002" x2="5988" y2="2576.5002">
	<stop  offset="0" style="stop-color:#59C6C1"/>
	<stop  offset="0.7362" style="stop-color:#009999"/>
</linearGradient>
<rect x="4592" y="2466" style="fill:url(#SVGID_00000110445192894024749990000011458427069232772997_);stroke:#000000;stroke-miterlimit:10;" width="1396" height="221"/>
<linearGradient id="SVGID_00000088837755777309867940000011005845639207120557_" gradientUnits="userSpaceOnUse" x1="4593" y1="2435.9104" x2="4656.6699" y2="2435.9104">
	<stop  offset="0" style="stop-color:#59C6C1"/>
	<stop  offset="0.7362" style="stop-color:#009999"/>
</linearGradient>
<polygon style="fill:url(#SVGID_00000088837755777309867940000011005845639207120557_);stroke:#000000;stroke-miterlimit:10;" points="
	4656.1,2465.7 4593,2466 4656.7,2405.8 "/>
</svg>
